<svg id="Capa_1" enable-background="new 0 0 512 512" height="512" viewBox="0 0 512 512" width="512" xmlns="http://www.w3.org/2000/svg"><circle cx="256" cy="256" fill="#00edff" r="256"/><path d="m512 256c0-6.262-.236-12.469-.678-18.618l-110.383-110.383-266.683 272.269 112.55 112.55c3.053.108 6.115.182 9.194.182 141.385 0 256-114.615 256-256z" fill="#0ac0ea"/><path d="m154.428 231.593h84.192v168.232h-84.192z" fill="#4a7aff" transform="matrix(.707 .707 -.707 .707 280.8 -46.495)"/><path d="m126.811 308.383h168.232v43.456h-168.232z" fill="#0053bf" transform="matrix(.707 -.707 .707 .707 -171.645 245.835)"/><path d="m210.082 150.275h135.52v168.232h-135.52z" fill="#2864f0" transform="matrix(.707 .707 -.707 .707 247.118 -127.812)"/><path d="m217.201 223.307h168.232v69.12h-168.232z" fill="#27488f" transform="matrix(.707 -.707 .707 .707 -94.086 288.591)"/><path d="m83.889 351.736h110v43.215h-110z" fill="#2864f0" transform="matrix(.707 .707 -.707 .707 304.674 11.141)"/><path d="m136.246 364.128h43.215v56.36h-43.215z" fill="#27488f" transform="matrix(.707 -.707 .707 .707 -231.17 226.524)"/><ellipse cx="362.125" cy="150.108" fill="#fff" rx="44.167" ry="84.325" transform="matrix(.707 -.707 .707 .707 -.078 300.027)"/><path d="m393.357 118.877c-.323-.323-.651-.63-.975-.949l-62.437 62.437c.319.324.627.652.949.975 32.931 32.931 73.609 45.644 90.858 28.396 17.248-17.25 4.535-57.929-28.395-90.859z" fill="#e9edf5"/><path d="m259.84 122.649h187.49v71.996h-187.49z" fill="#4a7aff" transform="matrix(.707 .707 -.707 .707 215.744 -203.556)"/><path d="m350.25 143.758h71.996v95.105h-71.996z" fill="#0053bf" transform="matrix(.707 -.707 .707 .707 -22.148 329.152)"/></svg>